<svg width="21" height="21" fill="#ED4B56" xmlns="http://www.w3.org/2000/svg">
<g clip-path="url(#clip0)">
<path d="M2.5 1A1.5 1.5 0 0 0 1 2.5v11A1.5 1.5 0 0 0 2.5 15h6.086a1.5 1.5 0 0 0 1.06-.44l4.915-4.914A1.5 1.5 0 0 0 15 8.586V2.5A1.5 1.5 0 0 0 13.5 1h-11zM2 2.5a.5.5 0 0 1 .5-.5h11a.5.5 0 0 1 .5.5V8H9.5A1.5 1.5 0 0 0 8 9.5V14H2.5a.5.5 0 0 1-.5-.5v-11zm7 11.293V9.5a.5.5 0 0 1 .5-.5h4.293L9 13.793z" fill="#ED4B56"/>
</g>
<defs>
<clipPath id="clip0">
<rect width="21" height="21" fill="#ED4B56"/>
</clipPath>
</defs>
</svg>